<svg xmlns="http://www.w3.org/2000/svg" viewBox="0 0 1200 650" role="img" aria-labelledby="title desc">
  <title id="title">Electric SUV editorial illustration</title><desc id="desc">A sleek electric SUV shown in profile against an editorial blue studio.</desc>
  <defs><linearGradient id="bg" x1="0" y1="0" x2="1" y2="1"><stop stop-color="#05111d"/><stop offset=".55" stop-color="#0f2c45"/><stop offset="1" stop-color="#0d1118"/></linearGradient><linearGradient id="body" x1="0" y1="0" x2="1" y2="1"><stop stop-color="#e8f5ff"/><stop offset=".28" stop-color="#7897ad"/><stop offset=".62" stop-color="#24394a"/><stop offset="1" stop-color="#0a1118"/></linearGradient><linearGradient id="glass"><stop stop-color="#8ed8ff" stop-opacity=".8"/><stop offset="1" stop-color="#0a1521"/></linearGradient><radialGradient id="stage"><stop stop-color="#3ab4ff" stop-opacity=".38"/><stop offset="1" stop-color="#3ab4ff" stop-opacity="0"/></radialGradient><filter id="shadow"><feDropShadow dx="0" dy="26" stdDeviation="20" flood-color="#000" flood-opacity=".75"/></filter></defs>
  <rect width="1200" height="650" rx="30" fill="url(#bg)"/><circle cx="940" cy="80" r="250" fill="url(#stage)"/><ellipse cx="610" cy="528" rx="475" ry="66" fill="#39b5ff" opacity=".18"/><g opacity=".28" fill="none" stroke="#82d5ff"><path d="M0 510h1200"/><path d="M160 580h880"/><path d="M1020 0v650"/></g>
  <g filter="url(#shadow)"><path d="M113 414c21-64 61-100 124-112l161-23 115-98c33-28 70-42 114-42h171c48 0 89 15 124 46l108 98 71 19c50 14 80 48 91 102l5 31-51 39H167l-66-35z" fill="url(#body)" stroke="#b9e7ff" stroke-opacity=".38" stroke-width="3"/><path d="M433 276l104-82c23-18 49-27 79-27h167c35 1 65 11 91 32l81 77z" fill="url(#glass)"/><path d="M664 167v109M831 176l-12 100" stroke="#07111b" stroke-width="11"/><path d="M138 369c80-31 173-46 280-46h532c104 0 181 15 231 46" fill="none" stroke="#eefaff" stroke-opacity=".5" stroke-width="4"/><path d="M109 403h117l48-31h108" fill="none" stroke="#ff3652" stroke-width="10" stroke-linecap="round"/><path d="M1050 349h87c27 0 46 17 56 50h-147z" fill="#e8fbff"/><path d="M1060 364h104" stroke="#50c7ff" stroke-width="8" stroke-linecap="round"/><path d="M527 318h86M811 318h88" stroke="#e8f5ff" stroke-opacity=".5" stroke-width="7" stroke-linecap="round"/><path d="M1157 421l-27 39H160l-34-34" fill="#05080c"/>
    <g><circle cx="345" cy="454" r="89" fill="#05080c"/><circle cx="345" cy="454" r="56" fill="#273745" stroke="#a9c4d7" stroke-width="7"/><circle cx="345" cy="454" r="19" fill="#091017" stroke="#f2fbff" stroke-width="5"/><path d="M345 403v33M345 472v33M294 454h33M363 454h33" stroke="#86a5ba" stroke-width="8"/></g><g><circle cx="964" cy="454" r="89" fill="#05080c"/><circle cx="964" cy="454" r="56" fill="#273745" stroke="#a9c4d7" stroke-width="7"/><circle cx="964" cy="454" r="19" fill="#091017" stroke="#f2fbff" stroke-width="5"/><path d="M964 403v33M964 472v33M913 454h33M982 454h33" stroke="#86a5ba" stroke-width="8"/></g></g>
  <text x="70" y="80" fill="#fff" font-family="Inter,Arial,sans-serif" font-size="24" font-weight="800" letter-spacing="5">SIGNATURE REVIEW // 2027</text>
</svg>
